<?xml version="1.0" encoding="UTF-8" standalone="no"?>
<svg
   width="16"
   height="16"
   version="1.1"
   id="svg7226"
   sodipodi:docname="cantata.svg"
   inkscape:version="1.3.2 (091e20ef0f, 2023-11-25)"
   xmlns:inkscape="http://www.inkscape.org/namespaces/inkscape"
   xmlns:sodipodi="http://sodipodi.sourceforge.net/DTD/sodipodi-0.dtd"
   xmlns:xlink="http://www.w3.org/1999/xlink"
   xmlns="http://www.w3.org/2000/svg"
   xmlns:svg="http://www.w3.org/2000/svg">
  <sodipodi:namedview
     id="namedview7228"
     pagecolor="#ffffff"
     bordercolor="#666666"
     borderopacity="1.0"
     inkscape:showpageshadow="2"
     inkscape:pageopacity="0.0"
     inkscape:pagecheckerboard="0"
     inkscape:deskcolor="#d1d1d1"
     showgrid="false"
     inkscape:zoom="13.906433"
     inkscape:cx="4.746005"
     inkscape:cy="11.829058"
     inkscape:window-width="1920"
     inkscape:window-height="994"
     inkscape:window-x="0"
     inkscape:window-y="0"
     inkscape:window-maximized="1"
     inkscape:current-layer="svg7226">
    <inkscape:grid
       type="xygrid"
       id="grid1030"
       originx="0"
       originy="0"
       spacingy="1"
       spacingx="1"
       units="px"
       visible="false" />
  </sodipodi:namedview>
  <defs
     id="defs7204">
    <linearGradient
       id="linearGradient5"
       inkscape:collect="always">
      <stop
         style="stop-color:#2a7fff;stop-opacity:1"
         offset="0"
         id="stop4" />
      <stop
         style="stop-color:#008080;stop-opacity:1"
         offset="1"
         id="stop5" />
    </linearGradient>
    <linearGradient
       id="linearGradient1"
       inkscape:collect="always">
      <stop
         style="stop-color:#0066ff;stop-opacity:1"
         offset="0"
         id="stop1" />
      <stop
         style="stop-color:#c83771;stop-opacity:1"
         offset="1"
         id="stop2" />
    </linearGradient>
    <linearGradient
       id="a"
       y1="21"
       x1="27"
       y2="37"
       x2="43"
       gradientUnits="userSpaceOnUse"
       gradientTransform="translate(-3,-1)">
      <stop
         stop-color="#292c2f"
         id="stop7189" />
      <stop
         offset="1"
         stop-opacity="0"
         id="stop7191" />
    </linearGradient>
    <linearGradient
       id="b"
       y1="10"
       x1="1"
       y2="44"
       x2="35"
       gradientUnits="userSpaceOnUse"
       gradientTransform="translate(0.366,-0.856)">
      <stop
         stop-color="#2980b9"
         id="stop7194" />
      <stop
         offset="1"
         stop-color="#1a7459"
         id="stop7196" />
    </linearGradient>
    <linearGradient
       id="c"
       y1="5"
       x1="2"
       y2="43"
       x2="40"
       gradientUnits="userSpaceOnUse">
      <stop
         stop-color="#2ecc71"
         id="stop7199" />
      <stop
         offset="1"
         stop-color="#55b019"
         id="stop7201"
         style="stop-color:#397611;stop-opacity:1;" />
    </linearGradient>
    <linearGradient
       inkscape:collect="always"
       xlink:href="#linearGradient1"
       id="linearGradient2"
       x1="1.821389"
       y1="14.112466"
       x2="13.681587"
       y2="3.397872"
       gradientUnits="userSpaceOnUse"
       gradientTransform="matrix(0.88888861,0,0,0.89041102,-4.3e-7,1.0095888)" />
    <linearGradient
       inkscape:collect="always"
       xlink:href="#linearGradient5"
       id="linearGradient4"
       x1="12.214286"
       y1="4.3499999"
       x2="5.7857146"
       y2="15.6"
       gradientUnits="userSpaceOnUse"
       gradientTransform="matrix(0.98084265,0,0,0.89041102,-0.82758654,1.1597114)" />
  </defs>
  <path
     d="M 14.964795,9.1757159 V 8.9695457 c 0,-0.8450593 -0.677662,-1.5663994 -1.562363,-1.7725424 C 13.101349,4.2291462 10.785957,1.9 8.0000603,1.9 5.2141746,1.9 2.8988696,4.2290715 2.5976865,7.1970033 1.6941904,7.4031657 1.0353303,8.1244864 1.0353303,8.9695457 V 9.1757159 C 0.45183009,9.2993635 -2.8e-7,9.917723 -2.8e-7,10.639156 c 0,0.742022 0.45180164,1.339644 1.03533058,1.463448 v 0.206166 c 0,1.009998 0.9411792,1.834377 2.108208,1.834377 H 3.6923079 V 7.7537757 c 0.0377,-2.6176377 1.8983192,-4.7405206 4.3076797,-4.7405206 2.4281844,0 4.2583344,2.1646345 4.3077104,4.8435555 v 6.2863364 h 0.54876 c 1.148231,0 2.108199,-0.824358 2.108199,-1.834377 V 12.102604 C 15.548158,11.978981 16,11.360621 16,10.639156 16,9.897026 15.548201,9.2992247 14.964657,9.1755697 Z"
     id="path67-6"
     style="fill:url(#linearGradient2);fill-opacity:1;stroke-width:0.0351742"
     sodipodi:nodetypes="cscscscscssccsscsscscc" />
  <path
     style="color:#31363b;fill:url(#linearGradient4);fill-opacity:1;stroke:none;stroke-width:0.616104"
     d="m 8.000404,5.033 v 6.91483 C 7.49282,11.721706 6.9034115,11.782823 6.2750522,12.05178 c -1.0517919,0.449768 -1.6548709,1.435673 -1.3476038,2.202231 0.3072628,0.766795 1.4098894,1.024715 2.4619149,0.57471 0.8298907,-0.355865 1.514581,-1.280653 1.514581,-1.837842 V 7.5372629 c 0,0 1.7644347,0.2501763 1.7644347,2.2535856 0,1.5025535 -0.485539,2.0041425 -1.6981221,3.2562685 1.2125831,-0.751279 2.1824481,-1.753715 2.1824481,-3.2562685 0,-2.0034093 -1.4970685,-2.9043679 -1.8804837,-3.3002862 C 9.0297065,6.2401347 8.7275001,5.283666 8.7275001,5.283666 Z"
     class="ColorScheme-Text"
     id="path9-3-7"
     sodipodi:nodetypes="cccccscscsscc" />
</svg>
